<svg width="180" height="180" viewBox="0 0 180 180" fill="none" xmlns="http://www.w3.org/2000/svg">
  <defs>
    <linearGradient id="bg" x1="20" y1="14" x2="160" y2="166" gradientUnits="userSpaceOnUse">
      <stop stop-color="#0E3153"/>
      <stop offset="1" stop-color="#051021"/>
    </linearGradient>
    <linearGradient id="accent" x1="36" y1="30" x2="146" y2="148" gradientUnits="userSpaceOnUse">
      <stop stop-color="#8AEFFF"/>
      <stop offset="1" stop-color="#25C6EC"/>
    </linearGradient>
    <linearGradient id="ship" x1="86" y1="56" x2="98" y2="128" gradientUnits="userSpaceOnUse">
      <stop stop-color="#F1FCFF"/>
      <stop offset="1" stop-color="#A7E8FF"/>
    </linearGradient>
  </defs>
  <rect x="6" y="6" width="168" height="168" rx="34" fill="url(#bg)"/>
  <rect x="6" y="6" width="168" height="168" rx="34" stroke="#2C628E" stroke-width="3"/>
  <circle cx="90" cy="90" r="54" stroke="url(#accent)" stroke-width="6" stroke-dasharray="8 6"/>
  <circle cx="90" cy="90" r="35" fill="#0A2947" stroke="#56D6F5" stroke-width="3"/>
  <path d="M90 44L103 80L142 90L103 100L90 136L77 100L38 90L77 80L90 44Z" fill="url(#accent)" fill-opacity="0.3"/>
  <path d="M90 56L106 98L90 132L74 98L90 56Z" fill="url(#ship)"/>
  <path d="M90 56L98 96H82L90 56Z" fill="#FFFFFF"/>
  <circle cx="90" cy="98" r="5" fill="#23C5EA"/>
</svg>
