<svg width="512" height="512" viewBox="0 0 512 512" fill="none" xmlns="http://www.w3.org/2000/svg">
  <defs>
    <linearGradient id="bg" x1="72" y1="52" x2="440" y2="460" gradientUnits="userSpaceOnUse">
      <stop stop-color="#0E3153"/>
      <stop offset="0.56" stop-color="#081D33"/>
      <stop offset="1" stop-color="#051021"/>
    </linearGradient>
    <linearGradient id="ring" x1="130" y1="106" x2="392" y2="404" gradientUnits="userSpaceOnUse">
      <stop stop-color="#87ECFF"/>
      <stop offset="1" stop-color="#25C6EC"/>
    </linearGradient>
    <linearGradient id="ship" x1="246" y1="154" x2="278" y2="364" gradientUnits="userSpaceOnUse">
      <stop stop-color="#F1FCFF"/>
      <stop offset="1" stop-color="#A7E8FF"/>
    </linearGradient>
  </defs>

  <rect x="26" y="26" width="460" height="460" rx="102" fill="url(#bg)"/>
  <rect x="26" y="26" width="460" height="460" rx="102" stroke="#2C628E" stroke-width="10"/>

  <circle cx="256" cy="256" r="165" stroke="url(#ring)" stroke-width="16" stroke-dasharray="24 18"/>
  <circle cx="256" cy="256" r="108" fill="#0A2947" stroke="#56D6F5" stroke-width="8"/>

  <path d="M256 124L293 229L406 256L293 283L256 388L219 283L106 256L219 229L256 124Z" fill="#39D2F4" fill-opacity="0.3"/>
  <path d="M256 156L299 270L256 362L213 270L256 156Z" fill="url(#ship)"/>
  <path d="M256 156L278 264H234L256 156Z" fill="#FFFFFF"/>
  <path d="M256 362L268 392L256 385L244 392L256 362Z" fill="#99E9FF"/>
  <circle cx="256" cy="266" r="15" fill="#23C5EA"/>
</svg>
